<?xml version="1.0" encoding="UTF-8"?>
<svg width="1200pt" height="1200pt" version="1.1" viewBox="0 0 1200 1200" xmlns="http://www.w3.org/2000/svg">
 <path d="m368.06 985.97h-185.29c-8.7188 0-15.797-7.0781-15.797-15.797v-185.29c0-8.7188 7.0781-15.797 15.797-15.797s15.797 7.0781 15.797 15.797v169.45h169.5c8.7188 0 15.797 7.0781 15.797 15.797s-7.0781 15.797-15.797 15.797zm-185.29-649.13c8.7188 0 15.797-7.0781 15.797-15.797v-169.4h169.5c8.7188 0 15.797-7.0781 15.797-15.797s-7.0781-15.797-15.797-15.797h-185.29c-8.7188 0-15.797 7.0781-15.797 15.797v185.26c0 8.7188 7.0781 15.797 15.797 15.797zm834.42 432.24c-8.7188 0-15.797 7.0781-15.797 15.797v169.45h-169.45c-8.7188 0-15.797 7.0781-15.797 15.797s7.0781 15.797 15.797 15.797h185.29c8.7188 0 15.797-7.0781 15.797-15.797v-185.29c0-8.7188-7.0781-15.797-15.797-15.797zm-185.29-617.48h169.45v169.4c0 8.7188 7.0781 15.797 15.797 15.797s15.797-7.0781 15.797-15.797v-185.26c0-8.7188-7.0781-15.797-15.797-15.797h-185.29c-8.7188 0-15.797 7.0781-15.797 15.797s7.0781 15.797 15.797 15.797zm248.06 291.24c0 8.7188-7.0781 15.797-15.797 15.797h-167.58c-2.5781 16.406-5.9062 33.938-9.9844 52.734 5.5312 0.09375 11.156 0.9375 16.688 2.6719 28.031 8.7188 41.531 40.031 36.938 85.969-6.1406 61.547-41.766 130.64-90.375 143.9-22.594 63.609-56.156 117.56-97.406 156.37-7.4062 6.9844-15.047 13.453-22.875 19.359l7.4531 73.031 265.08 56.062c8.5312 1.8281 13.969 10.172 12.188 18.75-1.5938 7.4531-8.1562 12.562-15.422 12.562-1.0781 0-2.2031-0.09375-3.2812-0.32812l-276.32-58.453c-6.7031-1.4062-11.766-7.0312-12.422-13.828l-6.9844-68.25c-31.641 17.484-65.391 26.531-99.844 26.531s-68.203-9.0469-99.844-26.531l-6.9844 68.25c-0.70312 6.8438-5.7188 12.422-12.422 13.828l-276.32 58.453c-1.125 0.23438-2.2031 0.32812-3.2812 0.32812-7.3125 0-13.875-5.1094-15.422-12.562-1.8281-8.5312 3.6562-16.922 12.188-18.75l265.08-56.062 7.4531-73.031c-7.7812-5.9062-15.422-12.328-22.828-19.359-41.203-38.859-74.766-92.766-97.312-156.37-48.609-13.219-84.281-82.359-90.422-143.9-4.5938-45.938 8.9062-77.297 36.938-85.969 5.2031-1.5938 10.5-2.4844 15.703-2.625-4.0312-17.766-6.5156-35.391-7.5938-52.781h-169.03c-8.7188 0-15.797-7.0781-15.797-15.797s7.0781-15.797 15.797-15.797h168.71c0.5625-13.312 2.0156-26.438 4.3594-39.422 7.875-43.359 25.453-83.719 52.312-119.91 28.641-38.625 66.938-71.062 110.81-93.844 42.188-21.891 86.438-33.469 127.97-33.469 76.734 0 159.84 39 217.82 101.95 30.469 13.125 63.375 31.641 77.859 78.375 8.2969 26.672 10.031 61.406 5.1562 106.31h163.31c8.7188 0 15.797 7.0781 15.797 15.797zm-743.95-15.797h532.97c4.8281-41.859 3.6094-73.922-3.5156-96.938-9.9844-32.109-30.703-46.312-63.188-59.953-2.1562-0.89062-4.0781-2.25-5.625-3.9844-51.469-57.188-128.68-94.125-196.74-94.125-76.875 0-162.66 46.031-213.42 114.52-23.906 32.25-47.625 79.219-50.531 140.53zm514.03 102.56c6.1406-25.828 10.922-49.406 14.484-70.922l-528.1-0.046875c1.5469 21.797 5.6719 45.094 13.219 69.984 1.9688 6.4219-0.375 13.406-5.8125 17.344s-12.797 4.0312-18.328 0.1875c-7.4062-5.1562-16.781-2.8125-19.453-1.9688-11.812 3.6562-17.672 24.328-14.859 52.688 5.2031 52.453 37.266 113.77 72.375 117.52 6.1875 0.60938 11.531 4.7344 13.547 10.734 43.078 128.86 128.48 208.87 222.89 208.87 94.359 0 179.76-80.062 222.94-208.87 1.9688-5.8594 7.2188-10.078 13.359-10.688 35.156-3.6094 67.266-65.062 72.469-117.52 2.8125-28.312-3-49.031-14.859-52.688-2.6719-0.84375-12.047-3.1406-19.453 1.9688-5.3906 3.75-12.516 3.75-17.906 0.09375-5.3906-3.7031-7.9688-10.312-6.4688-16.688z"/>
</svg>
