<?xml version="1.0" encoding="UTF-8"?>
<svg width="1200pt" height="1200pt" version="1.1" viewBox="0 0 1200 1200" xmlns="http://www.w3.org/2000/svg">
 <path d="m301.82 768.66h69.562c7.5 0 13.547-6.0469 13.547-13.547v-69.562c0-7.5-6.0469-13.547-13.547-13.547h-69.562c-7.5 0-13.547 6.0469-13.547 13.547v69.562c0 7.5 6.0469 13.547 13.547 13.547zm13.547-69.562h42.469v42.469h-42.469zm-86.016 49.453c-7.5 0-13.547 6.0469-13.547 13.547s6.0469 13.547 13.547 13.547h17.438v20.953c0 7.5 6.0469 13.547 13.547 13.547h20.953v17.438c0 7.5 6.0469 13.547 13.547 13.547s13.547-6.0469 13.547-13.547v-17.438h14.672v17.438c0 7.5 6.0469 13.547 13.547 13.547s13.547-6.0469 13.547-13.547v-17.438h14.672v17.438c0 7.5 6.0469 13.547 13.547 13.547s13.547-6.0469 13.547-13.547v-17.438h20.953c7.5 0 13.547-6.0469 13.547-13.547v-20.953h17.438c7.5 0 13.547-6.0469 13.547-13.547s-6.0469-13.547-13.547-13.547h-17.438v-14.672h17.438c7.5 0 13.547-6.0469 13.547-13.547s-6.0469-13.547-13.547-13.547h-17.438v-14.672h17.438c7.5 0 13.547-6.0469 13.547-13.547s-6.0469-13.547-13.547-13.547h-17.438v-20.953c0-7.5-6.0469-13.547-13.547-13.547h-20.953v-17.438c0-7.5-6.0469-13.547-13.547-13.547s-13.547 6.0469-13.547 13.547v17.438h-14.672v-17.438c0-7.5-6.0469-13.547-13.547-13.547s-13.547 6.0469-13.547 13.547v17.438h-14.672v-17.438c0-7.5-6.0469-13.547-13.547-13.547s-13.547 6.0469-13.547 13.547v17.438h-20.953c-7.5 0-13.547 6.0469-13.547 13.547v20.953h-17.438c-7.5 0-13.547 6.0469-13.547 13.547s6.0469 13.547 13.547 13.547h17.438v14.672h-17.438c-7.5 0-13.547 6.0469-13.547 13.547s6.0469 13.547 13.547 13.547h17.438v14.672zm44.531-90.891h125.44v125.44h-125.44zm-91.5 264.05c12.891 32.953 10.688 81.703-6.4219 141.05-1.1719 4.0781-0.375 8.4844 2.2031 11.906s6.5625 5.3906 10.828 5.3906h212.26c7.125 0 12.984-5.4844 13.5-12.562 1.0781-14.625 4.0781-42.047 6.6094-59.438 28.031 12.562 58.172 19.781 81.703 19.219 42.984-0.84375 42.75-33.938 42.609-53.766 0-1.125-0.046875-2.2031-0.046875-3.2812-0.1875-13.453-0.28125-19.594 13.031-29.297 7.2188-5.2969 10.781-11.391 10.594-18.094-0.09375-3.75-1.3594-6.7969-3-9.2344 6.5156-6.8906 13.641-17.906 7.3125-31.453-1.9219-4.1719-3.2812-7.3125-4.2188-9.6562 10.922-3.0469 27.703-8.3438 32.25-24.328 5.1094-17.812-9.1406-35.953-20.25-48.094-19.734-21.422-26.438-40.922-23.297-67.266 7.8281-64.922-5.25-116.3-38.859-152.72-48.891-52.922-128.44-61.219-186.56-58.828-72.422 2.9531-136.22 37.688-174.98 95.344-39.469 58.734-48.328 134.53-23.719 202.78 8.7188 24.281 20.766 47.625 32.438 70.266 5.7188 11.109 11.156 21.609 16.078 32.016zm-2.2969-289.92c34.406-51.141 88.969-80.766 153.61-83.391 52.453-2.1562 123.71 4.8281 165.56 50.156 27.984 30.328 38.719 74.438 31.875 131.11-4.125 34.266 5.2031 61.641 30.234 88.875 14.859 16.172 14.156 22.172 14.203 22.172-1.4531 2.4375-11.25 5.1562-14.953 6.1875-8.3438 2.2969-17.812 4.9219-20.016 14.906-1.5469 7.0312 0.375 14.625 7.9688 31.031-1.1719 1.7344-4.3594 4.5-5.9531 5.9062-1.9688 1.6875-3.7969 3.2812-5.3906 5.1562-2.9531 3.5156-4.2188 7.8281-3.5625 12.234 0.46875 3.1406 1.7812 5.5781 3.3281 7.5469-18.844 16.406-18.656 32.625-18.422 47.016 0 1.0312 0.046875 2.0625 0.046875 3.0938 0.1875 25.359-2.3906 26.203-16.125 26.484-23.438 0.5625-56.625-8.8594-84.469-23.953-3.3281-1.8281-7.2656-2.1562-10.875-0.89062-3.6094 1.2188-6.5156 3.8906-8.0156 7.4062-3.8906 8.9531-8.25 49.078-10.312 70.266h-182.21c14.672-58.406 14.906-106.03 0.75-141.66-0.09375-0.28125-0.23438-0.5625-0.32812-0.79688-5.2031-10.969-11.062-22.266-16.688-33.234-11.25-21.844-22.922-44.391-31.031-67.031-21.703-60.188-13.969-126.89 20.719-178.45zm150.42-350.86h195.79l-11.203-11.203c-5.2969-5.2969-5.2969-13.875 0-19.172 5.2969-5.2969 13.875-5.2969 19.172 0l34.266 34.359c5.2969 5.2969 5.2969 13.875 0 19.172l-34.266 34.266c-2.6719 2.625-6.1406 3.9844-9.5625 3.9844-3.4688 0-6.9375-1.3125-9.5625-3.9844-5.2969-5.2969-5.2969-13.875 0-19.172l11.156-11.156h-195.74c-13.547 0-24.516 10.969-24.516 24.469v128.16c0 7.5-6.0469 13.547-13.547 13.547s-13.547-6.0469-13.547-13.547v-128.16c0-28.453 23.156-51.562 51.609-51.562zm539.02 638.26h-195.79l11.203 11.203c5.2969 5.2969 5.2969 13.875 0 19.172-2.625 2.625-6.0938 3.9375-9.5625 3.9375s-6.9375-1.3125-9.6094-3.9844l-34.266-34.359c-5.2969-5.2969-5.2969-13.875 0-19.172l34.266-34.266c5.2969-5.2969 13.875-5.2969 19.172 0s5.2969 13.875 0 19.172l-11.156 11.156h195.74c13.5 0 24.469-10.969 24.469-24.469v-128.16c0-7.5 6.0469-13.547 13.547-13.547s13.547 6.0469 13.547 13.547v128.16c0 28.453-23.156 51.562-51.562 51.562zm-271.13-471.84c4.5938 15.984 21.281 21.281 32.25 24.328-0.9375 2.3438-2.2969 5.4844-4.2188 9.6562-6.2812 13.594 0.84375 24.609 7.3125 31.453-1.6406 2.4375-2.9062 5.4844-3 9.2344-0.1875 6.7031 3.4219 12.75 10.641 18.094 13.219 9.7031 13.125 15.797 12.984 29.156 0 1.125-0.046876 2.2969-0.046876 3.4219-0.14062 19.781-0.375 52.828 42.609 53.812 23.578 0.46875 53.672-6.7031 81.656-19.219 2.5312 17.297 5.5781 44.625 6.6562 59.438 0.5625 7.0781 6.4219 12.516 13.5 12.516h212.26c4.2656 0 8.25-2.0156 10.828-5.3906 2.5781-3.4219 3.375-7.8281 2.2031-11.906-17.156-59.391-19.406-108.14-6.4219-141.05 4.9688-10.547 10.453-21.188 16.266-32.438 11.578-22.453 23.578-45.703 32.25-69.797 24.609-68.25 15.75-144.05-23.719-202.74-38.766-57.656-102.61-92.438-175.03-95.391-58.125-2.3438-137.68 5.9062-186.56 58.875-33.656 36.422-46.734 87.797-38.906 152.72 3.1875 26.344-3.5156 45.844-23.25 67.312-11.156 12.094-25.359 30.281-20.297 48.047zm40.219-29.719c25.031-27.281 34.359-54.703 30.188-88.922-6.8438-56.672 3.8906-100.78 31.875-131.06 41.859-45.328 113.11-52.312 165.56-50.156 64.688 2.625 119.25 32.25 153.66 83.438 34.688 51.562 42.422 118.27 20.719 178.45-8.1094 22.453-19.688 44.859-30.844 66.562-5.7188 11.109-11.625 22.594-16.875 33.703-0.14062 0.23438-0.23438 0.51562-0.32812 0.75-14.203 35.625-13.922 83.25 0.75 141.71h-182.21c-2.0156-20.859-6.375-61.312-10.312-70.266-1.5469-3.4688-4.4062-6.1406-8.0156-7.3594-3.6094-1.2188-7.5-0.89062-10.828 0.89063-27.844 15.094-60.984 24.516-84.422 24-13.688-0.28125-16.266-1.1719-16.125-26.578 0-1.125 0-2.2031 0.046876-3.2344 0.14062-14.344 0.32812-30.422-18.469-46.828 1.5469-1.9219 2.8594-4.4062 3.3281-7.5 0.65625-4.3594-0.60937-8.7188-3.6094-12.281-1.5469-1.8281-3.375-3.4219-5.3438-5.1094-1.6406-1.4062-4.8281-4.1719-6-5.9062 6.6562-14.391 9.7031-23.203 7.9688-31.172-2.25-9.8906-11.672-12.469-19.969-14.766-3.7031-1.0312-13.547-3.75-14.953-6.0938 0-0.046876-0.75-6.0938 14.156-22.266zm77.484-107.91c0-13.688 4.3594-26.766 12.375-37.594-0.1875-1.9219-0.28125-3.7969-0.28125-5.7188 0-34.969 28.453-63.422 63.469-63.422 0.9375 0 1.875 0.046875 2.8125 0.09375 11.953-14.203 29.531-22.5 48.422-22.5 15.328 0 29.906 5.5312 41.344 15.328 7.125-2.3906 14.672-3.6562 22.406-3.6562 34.219 0 62.906 24.656 68.766 57.516 18.984 9.8906 31.969 29.766 31.969 52.594 0 32.719-26.625 59.344-59.297 59.344-15.375 0-29.719-5.7656-40.641-16.078-0.09375 0-0.23437 0.046875-0.32812 0.046875-1.6875 0.23438-3.3281 0.32812-5.0156 0.32812-9.9844 0-19.453-3.8438-26.625-10.922-5.2969-5.25-5.3438-13.828-0.09375-19.172s13.828-5.3438 19.172-0.09375c2.3438 2.3438 5.625 3.4219 9 3 5.7188-0.79688 9.8438-6.1875 9.0938-12-0.98438-7.4062 4.2188-14.25 11.672-15.234 7.4062-0.98438 14.25 4.2188 15.234 11.672 1.3125 10.031-1.4531 19.688-7.0781 27.281 4.6875 2.625 10.031 4.0781 15.609 4.0781 17.766 0 32.203-14.484 32.203-32.25 0-17.812-14.438-32.203-32.203-32.203-1.5469 0-3.0938 0.09375-4.5469 0.32812-7.4062 1.125-14.297-3.9375-15.469-11.344-1.125-7.4062 3.9375-14.297 11.344-15.469 1.8281-0.28125 3.6562-0.42188 5.5781-0.5625-7.0312-14.156-21.562-23.812-38.344-23.812-13.219 0-25.453 5.9531-33.656 16.312-4.6406 5.8594-13.172 6.8906-19.031 2.25-5.8594-4.6406-6.8906-13.172-2.25-19.031 2.1562-2.7188 4.5-5.25 6.9375-7.5469-4.875-2.3438-10.266-3.6094-15.797-3.6094-6.4219 0-12.609 1.6875-18 4.7812 0.375 0.23438 0.75 0.42188 1.125 0.65625 6.2812 4.0781 8.0625 12.469 4.0312 18.75-4.0781 6.2812-12.469 8.0625-18.75 4.0312-5.8125-3.7969-12.609-5.7656-19.641-5.7656-20.062 0-36.375 16.312-36.375 36.328 0 6.9375 2.0156 13.734 5.8125 19.688 4.0312 6.2812 2.2031 14.672-4.0781 18.703-2.25 1.4531-4.7812 2.1562-7.3125 2.1562-2.1562 0-4.2656-0.51562-6.1875-1.5-0.1875 1.4062-0.28125 2.8594-0.28125 4.3125 0 20.016 16.312 36.328 36.328 36.328 2.3438 0 4.6875-0.23438 6.9375-0.65625-0.046876-0.75-0.046876-1.5469-0.046876-2.2969 0-5.625 0.89063-11.25 2.625-16.734 2.25-7.125 9.8438-11.109 16.969-8.8594s11.109 9.8438 8.8594 16.969c-0.89063 2.8125-1.3594 5.7188-1.3594 8.625 0 15.656 12.75 28.406 28.406 28.406 8.0156 0 15.703-3.4688 21.141-9.4688 4.0781-4.5 10.594-5.7656 16.078-3.1406 4.0781 1.9688 8.5312 3 13.266 3 3.6562 0 7.2656-0.60938 10.688-1.8281 7.0781-2.5312 14.812 1.1719 17.297 8.2031 1.9688 5.5312 0.14063 11.484-4.1719 15 1.5469 0.51562 3.2812 1.0781 5.25 1.6406 13.781 4.1719 34.594 10.5 44.203 39.516 2.3438 7.125-1.5 14.766-8.5781 17.109-1.4062 0.46875-2.8594 0.70312-4.2656 0.70312-5.6719 0-10.969-3.6094-12.844-9.2812-5.2031-15.703-13.641-18.234-26.391-22.125-10.828-3.2812-25.078-7.6406-32.812-23.016-1.5938-0.32812-3.1406-0.70312-4.6406-1.125-9.7031 7.6406-21.797 11.859-34.266 11.859-20.25 0-38.016-10.922-47.719-27.141-4.7344 1.125-9.6562 1.6875-14.672 1.6875-34.969 0-63.422-28.453-63.422-63.422zm145.13-17.109c0.5625 7.4531-5.0156 13.969-12.469 14.531-0.32812 0.046875-0.70312 0.046875-1.0312 0.046875-7.0312 0-12.938-5.3906-13.5-12.516-0.23438-3.3281-1.9688-6.2344-4.7812-8.0625-4.9219-3.2344-11.531-1.8281-14.766 3.1406-4.125 6.2344-12.516 7.9688-18.75 3.8906-6.2344-4.125-7.9688-12.516-3.8906-18.75 11.438-17.391 34.875-22.312 52.266-10.922 9.8906 6.4688 16.031 16.922 16.922 28.688z"/>
</svg>
