<?xml version="1.0" encoding="UTF-8"?>
<svg width="1200pt" height="1200pt" version="1.1" viewBox="0 0 1200 1200" xmlns="http://www.w3.org/2000/svg">
 <path d="m1124.8 840.72-7.0781-7.0781c-5.2812-5.2812-9.7188-11.281-13.32-17.879l-88.441-165.24c-7.0781-13.32-16.078-25.441-26.762-36.121l-85.559-85.559c-20.641-20.641-54.238-20.641-75 0l-16.078 16.078c-9.7188-8.6406-22.078-13.441-35.16-13.441-14.16 0-27.359 5.5195-37.32 15.48l-18.602 18.602c-8.0391-7.0781-18.238-10.922-29.039-10.922-11.879 0-22.922 4.5586-31.32 12.961l-26.16 26.16-67.922-67.922c-10.801-10.801-25.078-16.68-40.32-16.68-15.238 0-29.52 5.8789-40.32 16.68-22.199 22.199-22.199 58.441 0 80.762l143.88 143.88c-10.441 1.8008-20.398 6.7188-28.441 14.762l-10.68 10.68c-6.6016 6.6016-10.199 15.359-10.199 24.719s3.6016 18.121 10.199 24.719l108.36 108.36c17.398 17.398 39 30.48 62.398 37.801l138.6 43.559c11.641 3.6016 22.32 10.199 30.961 18.719 2.1602 2.1602 5.0391 3.2383 7.9219 3.2383 2.8789 0 5.7617-1.0781 7.9219-3.2383 4.4414-4.4414 4.4414-11.52 0-15.961-11.16-11.16-25.078-19.559-40.078-24.359l-138.6-43.559c-20.039-6.2383-38.398-17.52-53.281-32.281l-108.36-108.36c-4.9219-4.9219-4.9219-12.84 0-17.762l10.68-10.68c5.7617-5.7617 13.441-8.8789 21.602-8.8789 8.1602 0 15.84 3.1211 21.602 8.8789l71.762 71.762c4.4414 4.4414 11.52 4.4414 15.961 0s4.4414-11.52 0-15.961l-246.24-246.24c-13.441-13.441-13.441-35.398 0-48.84 6.4805-6.4805 15.238-10.078 24.48-10.078 9.2383 0 17.879 3.6016 24.48 10.078l144.96 144.96c4.4414 4.4414 11.52 4.4414 15.961 0 4.4414-4.4414 4.4414-11.52 0-15.961l-61.199-61.199 26.16-26.16c4.0781-4.0781 9.6016-6.3594 15.48-6.3594 5.8789 0 11.281 2.2812 15.48 6.3594l66.48 66.48c4.4414 4.4414 11.52 4.4414 15.961 0 4.4414-4.4414 4.4414-11.52 0-15.961l-52.801-52.801 18.602-18.602c5.7617-5.7617 13.32-8.8789 21.48-8.8789 8.1602 0 15.719 3.1211 21.48 8.8789l41.16 41.16c4.4414 4.4414 11.52 4.4414 15.961 0s4.4414-11.52 0-15.961l-27.242-27.242 15.961-15.961c11.879-11.879 31.199-11.879 43.199 0l85.559 85.559c9.1211 9.1211 16.801 19.441 22.801 30.719l88.441 165.24c4.5586 8.5195 10.32 16.32 17.16 23.16l7.0781 7.0781c2.1602 2.1602 5.0391 3.2383 7.9219 3.2383 2.8789 0 5.7617-1.0781 7.9219-3.2383 4.4414-4.4414 4.4414-11.52 0-15.961z"/>
 <path d="m394.56 634.56c26.762 26.762 62.16 41.398 99.961 41.398h3.4805c6.2383-0.12109 11.16-5.2812 11.039-11.52-0.12109-6.2383-5.2812-11.16-11.52-11.039-32.879 0.83984-63.84-11.641-87-34.801-46.441-46.441-46.441-121.92 0-168.36 46.441-46.441 121.92-46.441 168.36 0 24 24 36.602 57.238 34.68 91.078-0.35938 6.2383 4.3203 11.52 10.559 11.879 6.2383 0.35938 11.52-4.3203 11.879-10.559 2.3984-40.32-12.719-79.801-41.16-108.36-55.199-55.199-144.96-55.199-200.16 0-26.762 26.762-41.398 62.281-41.398 100.08 0 37.801 14.762 73.32 41.398 100.08z"/>
 <path d="m252.36 390.48c21.719 0 43.32-7.0781 61.199-21.238l43.199 43.199c2.1602 2.1602 5.0391 3.2383 7.9219 3.2383 2.8789 0 5.7617-1.0781 7.9219-3.2383 4.4414-4.4414 4.4414-11.52 0-15.961l-43.199-43.199c30.719-38.641 28.199-95.039-7.4414-130.8-38.398-38.398-100.8-38.398-139.2 0-18.602 18.602-28.801 43.32-28.801 69.602s10.199 51 28.801 69.602c19.199 19.199 44.398 28.801 69.602 28.801zm-53.641-152.04c14.762-14.762 34.199-22.199 53.641-22.199s38.879 7.4414 53.641 22.199c29.641 29.641 29.641 77.762 0 107.28-29.641 29.641-77.762 29.641-107.28 0-14.281-14.281-22.199-33.359-22.199-53.641s7.9219-39.359 22.199-53.641z"/>
 <path d="m480.12 924.36 25.199-204.84c0.71875-6.1211-3.6016-11.762-9.8398-12.602-6.1211-0.71875-11.762 3.6016-12.602 9.8398l-25.078 202.92c-28.078-2.5195-57 6.9609-78.359 28.32-38.398 38.398-38.398 100.8 0 139.2 18.602 18.602 43.32 28.801 69.602 28.801s51-10.199 69.602-28.801c38.398-38.398 38.398-100.8 0-139.2-11.16-11.16-24.48-19.199-38.641-23.762zm22.68 147c-14.281 14.281-33.359 22.199-53.641 22.199s-39.359-7.9219-53.641-22.199c-29.641-29.641-29.641-77.762 0-107.28 14.762-14.762 34.199-22.199 53.641-22.199s38.879 7.4414 53.641 22.199c29.641 29.641 29.641 77.762 0 107.28z"/>
 <path d="m325.8 612.6-127.68 99.961c-2.2812-3.2383-4.8008-6.3594-7.6797-9.2383-13.078-13.078-30.48-20.281-49.078-20.281-18.602 0-36 7.1992-49.078 20.281-27 27-27 71.039 0 98.039 13.078 13.078 30.48 20.281 49.078 20.281 18.602 0 35.879-7.1992 49.078-20.281 18.359-18.359 24.238-44.641 17.641-68.039l131.64-103.08c4.9219-3.8398 5.7617-10.922 1.9219-15.84-3.8398-4.9219-10.922-5.7617-15.84-1.9219zm-151.32 172.92c-8.8789 8.8789-20.641 13.68-33.121 13.68s-24.238-4.9219-33.121-13.68c-18.238-18.238-18.238-48 0-66.238 8.8789-8.8789 20.641-13.68 33.121-13.68s24.238 4.9219 33.121 13.68c18.238 18.238 18.238 48 0 66.238z"/>
 <path d="m534.36 366.48c1.1992 0.35938 2.3984 0.60156 3.6016 0.60156 4.6797 0 9.1211-3 10.68-7.6797l46.078-138.12c4.1992 0.71875 8.5195 1.1992 12.719 1.1992 17.762 0 35.52-6.7188 49.078-20.281 27-27 27-71.039 0-98.039s-71.039-27-98.039 0-27 71.039 0 98.039c4.5586 4.5586 9.7188 8.3984 15.121 11.398l-46.199 138.6c-1.9219 5.8789 1.1992 12.238 7.0781 14.281zm39.84-246.48c9.1211-9.1211 21.121-13.68 33.121-13.68s24 4.5586 33.121 13.68c18.238 18.238 18.238 48 0 66.238-18.238 18.238-48 18.238-66.238 0s-18.238-48 0-66.238z"/>
 <path d="m630.84 419.4c-5.2812 3.3594-6.8398 10.32-3.4805 15.48 2.1602 3.3594 5.7617 5.2812 9.4805 5.2812 2.0391 0 4.1992-0.60156 6-1.8008l76.078-48.238c3.6016 5.3984 7.6797 10.559 12.48 15.238 19.199 19.199 44.398 28.801 69.602 28.801 25.199 0 50.398-9.6016 69.602-28.801 38.398-38.398 38.398-100.8 0-139.2-38.398-38.398-100.8-38.398-139.2 0-27.961 27.961-35.52 68.762-22.68 103.68l-78 49.441zm116.52-137.28c14.762-14.762 34.199-22.199 53.641-22.199s38.879 7.4414 53.641 22.199c29.641 29.641 29.641 77.762 0 107.28-29.641 29.641-77.762 29.641-107.28 0-29.641-29.641-29.641-77.762 0-107.28z"/>
</svg>
